<?xml version="1.0" standalone="no"?>
<!DOCTYPE svg PUBLIC "-//W3C//DTD SVG 20010904//EN"
 "http://www.w3.org/TR/2001/REC-SVG-20010904/DTD/svg10.dtd">
<svg version="1.0" xmlns="http://www.w3.org/2000/svg"
 width="944.000000pt" height="944.000000pt" viewBox="0 0 944.000000 944.000000"
 preserveAspectRatio="xMidYMid meet">
<metadata>
Created by potrace 1.14, written by Peter Selinger 2001-2017
</metadata>
<g transform="translate(0.000000,944.000000) scale(0.100000,-0.100000)"
fill="#000000" stroke="none">
<path d="M6963 9137 c-118 -118 -354 -352 -1433 -1417 -173 -171 -409 -404
-523 -517 l-208 -207 -372 371 c-391 389 -466 463 -473 463 -3 0 -15 10 -28
23 -12 12 -39 36 -61 52 -21 17 -50 40 -64 51 -14 12 -71 51 -126 88 -55 36
-105 71 -112 76 -7 6 -14 10 -17 10 -3 0 -28 13 -56 30 -27 16 -50 26 -50 22
0 -4 -7 2 -16 13 -8 11 -16 18 -17 16 -1 -2 -38 13 -82 34 -178 82 -413 164
-545 189 -14 3 -50 10 -80 16 -30 6 -73 13 -95 16 -22 3 -51 7 -65 10 -41 9
-263 25 -345 25 -30 0 -244 -12 -270 -15 -91 -12 -137 -19 -199 -32 -38 -7
-73 -11 -77 -8 -5 3 -9 1 -9 -4 0 -5 -6 -9 -12 -9 -25 -1 -194 -46 -228 -60
-8 -3 -17 -7 -20 -7 -3 -1 -11 -5 -17 -9 -7 -5 -13 -5 -13 -1 0 3 -11 -1 -25
-10 -14 -9 -25 -14 -25 -12 0 6 -118 -43 -215 -90 -38 -18 -74 -33 -79 -33 -5
1 -12 -3 -15 -8 -3 -5 -37 -27 -75 -49 -109 -62 -189 -115 -194 -126 -2 -5
-10 -8 -17 -8 -7 0 -15 -3 -17 -7 -2 -5 -32 -30 -68 -58 -109 -84 -123 -96
-384 -348 -114 -111 -215 -208 -222 -215 -12 -12 179 -207 1281 -1306 l1295
-1293 -615 -614 c-339 -338 -620 -615 -625 -617 -6 -2 -10 -9 -11 -15 -1 -7
-36 -43 -79 -82 -43 -38 -79 -74 -79 -80 -1 -5 -20 -23 -41 -40 -21 -16 -39
-35 -40 -42 0 -6 -5 -13 -10 -15 -9 -3 -891 -878 -919 -912 -9 -11 202 -227
1089 -1112 606 -605 1102 -1100 1104 -1101 1 -1 547 542 1214 1207 667 666
1216 1210 1220 1210 5 0 554 -545 1221 -1210 l1213 -1210 784 782 c431 431
788 784 794 786 5 2 10 7 10 12 0 10 182 190 192 190 4 0 8 4 8 8 0 5 92 100
205 212 113 113 205 209 205 215 0 5 -77 86 -170 179 -94 94 -170 174 -170
178 0 4 -4 8 -8 8 -4 0 -473 464 -1041 1031 l-1034 1032 294 289 c162 159 450
442 641 630 190 187 352 344 360 349 7 5 10 9 5 9 -4 0 12 17 34 38 23 20 119
114 214 207 95 94 193 189 218 213 26 23 45 42 43 42 -2 0 37 39 86 88 50 48
166 161 258 252 l168 166 -737 731 c-405 402 -902 896 -1104 1097 -203 201
-374 366 -380 366 -7 0 -71 -60 -144 -133z"/>
</g>
</svg>
