<svg viewBox="0 0 14 22"  xmlns="http://www.w3.org/2000/svg" id="let1">
<path d="M0.0747657 14.9436H3.21492V17.7847C3.28969 17.7847 3.36445 17.8594 3.36445 17.8594C3.81305 18.0837 4.26164 18.2333 4.785 18.308C5.30836 18.4576 5.90649 18.5323 6.50461 18.5323C7.55133 18.5323 8.44852 18.308 8.97188 17.8594C9.57 17.4108 9.86907 16.8127 9.86907 16.1398C9.86907 15.4669 9.64477 14.9436 9.12141 14.5698C8.59805 14.1959 7.99992 13.8221 7.32703 13.523C6.57938 13.224 5.83172 12.9249 4.93453 12.6258C4.11211 12.3268 3.28969 11.953 2.54203 11.4296C1.79438 10.981 1.19625 10.3829 0.747657 9.63522C0.224297 8.88756 0 7.99037 0 6.86889C0 5.9717 0.149531 5.22404 0.52336 4.47639C0.822422 3.72873 1.34578 3.13061 1.94391 2.60725C2.54203 2.08389 3.28969 1.71006 4.11211 1.411C4.93453 1.11193 5.90649 0.962402 6.95321 0.962402C8.14946 0.962402 9.27094 1.03717 10.3924 1.26146C11.5139 1.48576 12.4111 1.78482 13.084 2.15865V7.99037H9.94383V4.77545C9.86907 4.77545 9.7943 4.77545 9.7943 4.77545C9.34571 4.62592 8.89711 4.55115 8.44852 4.47639C7.99992 4.40162 7.47657 4.40162 7.02797 4.40162C6.13078 4.40162 5.38313 4.55115 4.85977 4.92498C4.33641 5.29881 4.03735 5.7474 4.03735 6.42029C4.03735 7.01842 4.26164 7.54178 4.785 7.99037C5.30836 8.43897 5.90649 8.73803 6.57938 9.11186C7.32703 9.41092 8.07469 9.78475 8.97188 10.0838C9.7943 10.3829 10.6167 10.8315 11.3644 11.2801C12.112 11.7287 12.7102 12.3268 13.1588 13.0744C13.6821 13.8221 13.9064 14.6445 13.9064 15.766C13.9064 16.8127 13.6821 17.7099 13.3083 18.4576C12.9345 19.2052 12.4111 19.8781 11.6634 20.4015C10.9906 20.9248 10.1681 21.2987 9.19618 21.5977C8.22422 21.822 7.25227 21.9715 6.13078 21.9715C5.38313 21.9715 4.71024 21.8968 4.11211 21.822C3.51399 21.6725 2.91586 21.5977 2.3925 21.3734C1.86914 21.2239 1.42055 20.9996 0.971954 20.8501C0.598125 20.6258 0.224297 20.4762 0 20.3267V14.9436H0.0747657Z"/>
</svg>
