<svg width="285" height="163" viewBox="0 0 285 163" fill="none" xmlns="http://www.w3.org/2000/svg">
<mask id="mask0_1079_258" style="mask-type:alpha" maskUnits="userSpaceOnUse" x="4" y="0" width="281" height="163">
<path d="M215.217 7.49586L211.792 4.07351C213.144 2.88399 215.205 2.98559 216.45 4.23003L216.783 3.89712L216.45 4.23003L217.517 5.29603L217.866 5.64431L218.219 5.30083L221.455 2.15561L223.754 4.4529L220.529 7.58796L220.165 7.9416L220.524 8.30019L223.953 11.7259L221.653 14.0233L218.224 10.5969L217.871 10.2438L217.517 10.5969L214.094 14.0176L211.783 11.6346L215.217 8.20328L215.571 7.84957L215.217 7.49586Z" fill="white" stroke="black"/>
<path d="M230.154 22.4198L226.728 18.9975C228.08 17.8079 230.141 17.9095 231.387 19.154L232.454 20.22L232.802 20.5683L233.156 20.2248L236.391 17.0796L238.69 19.3768L235.465 22.5119L235.102 22.8656L235.461 23.2241L238.889 26.6499L236.59 28.9472L233.161 25.5209L232.807 25.1678L232.454 25.5209L229.03 28.9416L226.719 26.5585L230.154 23.1272L230.508 22.7735L230.154 22.4198Z" fill="white" stroke="black"/>
<path d="M247.391 40.4447L243.967 43.8653L241.656 41.4823L245.091 38.051L245.445 37.6973L245.091 37.3436L241.665 33.9212C243.017 32.7317 245.078 32.8333 246.324 34.0778L246.677 33.724L246.324 34.0778L247.391 35.1437L247.739 35.492L248.093 35.1486L251.328 32.0033L253.627 34.3006L250.402 37.4357L250.039 37.7893L250.398 38.1479L253.826 41.5736L251.527 43.871L248.098 40.4447L247.744 40.0916L247.391 40.4447Z" fill="white" stroke="black"/>
<path d="M260.028 52.1706L256.603 48.7483C257.955 47.5588 260.016 47.6604 261.261 48.9048L262.328 49.9708L262.677 50.3191L263.03 49.9756L266.266 46.8304L268.565 49.1277L265.34 52.2627L264.976 52.6164L265.335 52.975L268.764 56.4007L266.464 58.698L263.035 55.2717L262.682 54.9186L262.328 55.2717L258.905 58.6924L256.594 56.3093L260.028 52.8781L260.382 52.5243L260.028 52.1706Z" fill="white" stroke="black"/>
<path d="M244.8 7.78656L241.375 4.36421C242.727 3.17468 244.788 3.27628 246.033 4.52073L246.387 4.16702L246.033 4.52073L247.1 5.58672L247.454 5.93981L247.807 5.58672L251.042 2.3542L253.337 4.64668L250.112 7.78175L249.748 8.13539L250.107 8.49397L253.536 11.9197L251.236 14.2171L247.807 10.7907L247.454 10.4376L247.1 10.7907L243.671 14.2171L241.371 11.9197L244.8 8.49397L245.154 8.14027L244.8 7.78656Z" fill="white" stroke="black"/>
<path d="M259.834 22.7105L256.409 19.2881C257.761 18.0986 259.822 18.2002 261.067 19.4446L261.421 19.0909L261.067 19.4446L262.134 20.5106L262.483 20.8589L262.836 20.5154L266.072 17.3702L268.371 19.6675L265.146 22.8026L264.782 23.1562L265.141 23.5148L268.57 26.9405L266.271 29.2379L262.841 25.8115L262.488 25.4584L262.134 25.8115L258.711 29.2322L256.4 26.8492L259.834 23.4179L260.188 23.0642L259.834 22.7105Z" fill="white" stroke="black"/>
<path d="M274.674 37.5374L271.249 34.1151C272.601 32.9256 274.662 33.0272 275.907 34.2716C275.907 34.2716 275.907 34.2716 275.907 34.2716L276.974 35.3376L277.323 35.6859L277.676 35.3424L280.912 32.1972L283.211 34.4945L279.986 37.6295L279.622 37.9832L279.981 38.3418L283.41 41.7675L281.11 44.0648L277.681 40.6385L277.328 40.2854L276.974 40.6385L273.551 44.0592L271.24 41.6761L274.674 38.2448L275.028 37.8911L274.674 37.5374Z" fill="white" stroke="black"/>
<path d="M274.48 7.98042L271.055 4.55807C272.406 3.36855 274.467 3.47015 275.713 4.71459L276.066 4.36088L275.713 4.71459L276.78 5.78058L277.128 6.12887L277.482 5.78539L280.717 2.64017L283.017 4.93746L279.792 8.07252L279.428 8.42616L279.787 8.78474L283.215 12.2105L280.916 14.5078L277.487 11.0815L277.133 10.7284L276.78 11.0815L273.356 14.5022L271.046 12.1191L274.48 8.68784L274.834 8.33413L274.48 7.98042Z" fill="white" stroke="black"/>
<path d="M274.868 67.0945L271.443 63.6721C272.794 62.4826 274.856 62.5842 276.101 63.8287L276.439 63.4903L276.101 63.8287L277.168 64.8947L277.517 65.2429L277.87 64.8995L281.105 61.7542L283.405 64.0515L280.18 67.1866L279.816 67.5402L280.175 67.8988L283.604 71.3245L281.304 73.6219L277.875 70.1956L277.521 69.8425L277.168 70.1956L273.744 73.6163L271.434 71.2332L274.868 67.8019L275.222 67.4482L274.868 67.0945Z" fill="white" stroke="black"/>
<path d="M165.073 63.1794L161.848 66.3144L161.484 66.6681L161.843 67.0267L165.272 70.4524L162.972 72.7497L159.543 69.3234L159.189 68.9703L158.836 69.3234L155.401 72.7555L153.113 70.5434L156.536 67.1236L156.89 66.7699L156.536 66.4162L153.03 62.9129L153.082 62.8252C154.433 61.6091 156.515 61.7033 157.769 62.9565L158.123 62.6028L157.769 62.9565L158.836 64.0225L159.185 64.3708L159.538 64.0273L162.773 60.8821L165.073 63.1794Z" fill="white" stroke="black"/>
<path d="M171.376 81.0494L167.951 77.627C169.302 76.4375 171.363 76.5391 172.609 77.7836L172.933 77.4593L172.609 77.7836L173.676 78.8496L174.024 79.1978L174.378 78.8544L177.613 75.7091L179.913 78.0064L176.688 81.1415L176.324 81.4951L176.683 81.8537L180.111 85.2794L177.812 87.5768L174.383 84.1505L174.029 83.7974L173.676 84.1505L170.252 87.5711L167.942 85.1881L171.376 81.7568L171.73 81.4031L171.376 81.0494Z" fill="white" stroke="black"/>
<path d="M186.313 96.0701L182.888 92.6478C184.239 91.4582 186.3 91.5598 187.546 92.8043L188.613 93.8703L188.961 94.2186L189.315 93.8751L192.55 90.7299L194.85 93.0271L191.625 96.1622L191.261 96.5159L191.62 96.8744L195.048 100.3L192.749 102.598L189.32 99.1712L188.966 98.8181L188.613 99.1712L185.189 102.592L182.879 100.209L186.313 96.7775L186.667 96.4238L186.313 96.0701Z" fill="white" stroke="black"/>
<path d="M201.25 110.897L197.825 107.475C199.176 106.285 201.237 106.387 202.483 107.631L203.55 108.697L203.899 109.046L204.252 108.702L207.487 105.557L209.787 107.854L206.562 110.989L206.198 111.343L206.557 111.701L209.985 115.127L207.686 117.425L204.257 113.998L203.903 113.645L203.55 113.998L200.126 117.419L197.816 115.036L201.25 111.605L201.604 111.251L201.25 110.897Z" fill="white" stroke="black"/>
<path d="M171.182 51.4923L167.757 48.0699C169.108 46.8804 171.17 46.982 172.415 48.2264L172.718 47.9233L172.415 48.2264L173.482 49.2924L173.831 49.6407L174.184 49.2972L177.419 46.152L179.719 48.4493L176.494 51.5844L176.13 51.938L176.489 52.2966L179.918 55.7223L177.618 58.0197L174.189 54.5933L173.835 54.2402L173.482 54.5933L170.058 58.014L167.748 55.631L171.182 52.1997L171.536 51.846L171.182 51.4923Z" fill="white" stroke="black"/>
<path d="M186.119 66.4162L182.694 62.9938C184.045 61.8043 186.107 61.9059 187.352 63.1504L187.676 62.8261L187.352 63.1504L188.419 64.2163L188.768 64.5646L189.121 64.2212L192.356 61.0759L194.656 63.3732L191.431 66.5083L191.067 66.8619L191.426 67.2205L194.855 70.6462L192.555 72.9436L189.126 69.5172L188.772 69.1642L188.419 69.5172L184.995 72.9379L182.685 70.5549L186.119 67.1236L186.473 66.7699L186.119 66.4162Z" fill="white" stroke="black"/>
<path d="M201.056 81.3401L197.631 77.9178C198.982 76.7282 201.044 76.8298 202.289 78.0743C202.289 78.0743 202.289 78.0743 202.289 78.0743L203.356 79.1403L203.705 79.4886L204.058 79.1451L207.293 75.9998L209.593 78.2971L206.368 81.4322L206.004 81.7858L206.363 82.1444L209.792 85.5701L207.492 87.8675L204.063 84.4412L203.709 84.0881L203.356 84.4412L199.932 87.8619L197.622 85.4788L201.056 82.0475L201.41 81.6938L201.056 81.3401Z" fill="white" stroke="black"/>
<path d="M224.433 93.221L221.208 96.3561L220.844 96.7097L221.203 97.0683L224.631 100.494L222.332 102.791L218.903 99.365L218.549 99.0119L218.196 99.365L214.772 102.786L212.462 100.403L215.896 96.9714L216.25 96.6177L215.896 96.264L212.471 92.8416C213.822 91.6521 215.883 91.7537 217.129 92.9981L218.196 94.0641L218.544 94.4124L218.898 94.0689L222.133 90.9237L224.433 93.221Z" fill="white" stroke="black"/>
<path d="M185.925 36.8591L182.5 33.4368C183.852 32.2472 185.913 32.3488 187.158 33.5933L188.225 34.6593L188.574 35.0076L188.927 34.6641L192.163 31.5189L194.462 33.8161L191.237 36.9512L190.873 37.3049L191.232 37.6634L194.661 41.0892L192.361 43.3865L188.932 39.9602L188.579 39.6071L188.225 39.9602L184.802 43.3809L182.491 40.9978L185.925 37.5665L186.279 37.2128L185.925 36.8591Z" fill="white" stroke="black"/>
<path d="M200.765 51.6861L197.34 48.2638C198.691 47.0742 200.753 47.1758 201.998 48.4203L202.352 48.0666L201.998 48.4203L203.065 49.4863L203.414 49.8346L203.767 49.4911L207.002 46.3459L209.302 48.6431L206.077 51.7782L205.713 52.1319L206.072 52.4904L209.501 55.9162L207.201 58.2135L203.772 54.7872L203.418 54.4341L203.065 54.7872L199.641 58.2079L197.331 55.8248L200.765 52.3935L201.119 52.0398L200.765 51.6861Z" fill="white" stroke="black"/>
<path d="M215.702 66.7069L212.277 63.2845C213.628 62.095 215.69 62.1966 216.935 63.441L217.238 63.1379L216.935 63.441L218.002 64.507L218.351 64.8553L218.704 64.5118L221.939 61.3666L224.239 63.6639L221.014 66.799L220.65 67.1526L221.009 67.5112L224.438 70.9369L222.138 73.2343L218.709 69.8079L218.355 69.4548L218.002 69.8079L214.578 73.2286L212.268 70.8456L215.702 67.4143L216.056 67.0606L215.702 66.7069Z" fill="white" stroke="black"/>
<path d="M230.542 81.6308L227.117 78.2085C228.469 77.0189 230.53 77.1205 231.775 78.365L232.113 78.0266L231.775 78.365L232.842 79.431L233.191 79.7793L233.544 79.4358L236.791 76.2797L239.164 78.5025L235.951 81.626L235.587 81.9796L235.946 82.3382L239.375 85.7639L237.076 88.0613L233.646 84.635L233.293 84.2819L232.939 84.635L229.504 88.0669L227.119 85.7583L230.542 82.3382L230.896 81.9845L230.542 81.6308Z" fill="white" stroke="black"/>
<path d="M209.108 19.1829L205.883 22.318L205.519 22.6716L205.878 23.0302L209.307 26.4559L207.007 28.7533L203.578 25.327L203.225 24.9739L202.871 25.327L199.448 28.7477L197.137 26.3646L200.571 22.9333L200.925 22.5796L200.571 22.2259L197.146 18.8036C198.498 17.614 200.559 17.7156 201.804 18.9601L202.871 20.0261L203.22 20.3743L203.573 20.0309L206.809 16.8856L209.108 19.1829Z" fill="white" stroke="black"/>
<path d="M223.948 34.01L220.723 37.145L220.359 37.4987L220.718 37.8573L224.147 41.283L221.847 43.5803L218.418 40.154L218.064 39.8009L217.711 40.154L214.287 43.5747L211.977 41.1916L215.411 37.7603L215.765 37.4066L215.411 37.0529L211.986 33.6306C213.337 32.4411 215.399 32.5427 216.644 33.7871L217.711 34.8531L218.06 35.2014L218.413 34.8579L221.648 31.7127L223.948 34.01Z" fill="white" stroke="black"/>
<path d="M230.445 51.9769L227.02 48.5545C228.372 47.365 230.433 47.4666 231.678 48.711L232.745 49.777L233.094 50.1253L233.447 49.7818L236.683 46.6366L238.982 48.9339L235.757 52.0689L235.393 52.4226L235.752 52.7812L239.181 56.2069L236.881 58.5043L233.452 55.0779L233.099 54.7248L232.745 55.0779L229.322 58.4986L227.011 56.1156L230.445 52.6843L230.799 52.3306L230.445 51.9769Z" fill="white" stroke="black"/>
<path d="M245.285 66.9007L241.86 63.4784C243.211 62.2888 245.273 62.3904 246.518 63.6349L246.842 63.3107L246.518 63.6349L247.585 64.7009L247.934 65.0492L248.287 64.7057L251.522 61.5605L253.822 63.8577L250.597 66.9928L250.233 67.3464L250.592 67.705L254.021 71.1307L251.721 73.4281L248.292 70.0018L247.938 69.6487L247.585 70.0018L244.161 73.4225L241.851 71.0394L245.285 67.6081L245.639 67.2544L245.285 66.9007Z" fill="white" stroke="black"/>
<path d="M224.627 122.778L221.402 125.913L221.038 126.267L221.397 126.625L224.826 130.051L222.526 132.348L219.097 128.922L218.744 128.569L218.39 128.922L214.967 132.343L212.656 129.96L216.09 126.528L216.444 126.175L216.09 125.821L212.665 122.399C214.017 121.209 216.078 121.311 217.323 122.555L218.39 123.621L218.739 123.97L219.092 123.626L222.328 120.481L224.627 122.778Z" fill="white" stroke="black"/>
<path d="M236.237 141.355L239.666 144.781L237.366 147.079L233.937 143.652L233.583 143.299L233.23 143.652L229.801 147.079L227.501 144.781L230.93 141.355L231.284 141.002L230.93 140.648L227.505 137.226C228.856 136.036 230.918 136.138 232.163 137.382L233.23 138.448L233.579 138.796L233.932 138.453L237.167 135.308L239.462 137.6L236.247 140.638L235.873 140.992L236.237 141.355Z" fill="white" stroke="black"/>
<path d="M251.174 156.376L254.603 159.802L252.303 162.099L248.874 158.673L248.521 158.32L248.167 158.673L244.738 162.099L242.438 159.802L245.867 156.376L246.221 156.023L245.867 155.669L242.442 152.247C243.793 151.057 245.855 151.159 247.1 152.403L248.167 153.469L248.516 153.817L248.869 153.474L252.104 150.329L254.399 152.621L251.184 155.659L250.81 156.013L251.174 156.376Z" fill="white" stroke="black"/>
<path d="M230.833 111.091L227.408 107.669C228.759 106.479 230.82 106.581 232.066 107.825L232.419 107.471L232.066 107.825L233.133 108.891L233.482 109.239L233.835 108.896L237.07 105.751L239.37 108.048L236.145 111.183L235.781 111.537L236.14 111.895L239.568 115.321L237.269 117.618L233.84 114.192L233.486 113.839L233.133 114.192L229.709 117.613L227.399 115.23L230.833 111.798L231.187 111.445L230.833 111.091Z" fill="white" stroke="black"/>
<path d="M254.209 122.972L250.984 126.107L250.621 126.461L250.98 126.819L254.408 130.245L252.109 132.542L248.68 129.116L248.326 128.763L247.973 129.116L244.549 132.537L242.238 130.154L245.673 126.722L246.027 126.369L245.673 126.015L242.247 122.593C243.599 121.403 245.66 121.505 246.906 122.749L247.973 123.815L248.321 124.163L248.675 123.82L251.91 120.675L254.209 122.972Z" fill="white" stroke="black"/>
<path d="M265.917 141.646L269.345 145.072L267.046 147.369L263.617 143.943L263.263 143.59L262.91 143.943L259.48 147.369L257.181 145.072L260.61 141.646L260.964 141.292L260.61 140.939L257.184 137.516C258.536 136.327 260.597 136.428 261.843 137.673C261.843 137.673 261.843 137.673 261.843 137.673L262.91 138.739L263.258 139.087L263.612 138.744L266.847 135.598L269.141 137.891L265.927 140.929L265.553 141.282L265.917 141.646Z" fill="white" stroke="black"/>
<path d="M280.762 155.955L280.393 156.313L280.762 156.672L284.181 160L281.886 162.293L278.457 158.867L278.104 158.514L277.75 158.867L274.321 162.293L272.021 159.996L275.45 156.57L275.804 156.216L275.45 155.863L272.025 152.44C273.376 151.251 275.438 151.352 276.683 152.597L277.02 152.259L276.683 152.597L277.75 153.663L278.099 154.011L278.452 153.668L281.687 150.522L283.987 152.82L280.762 155.955Z" fill="white" stroke="black"/>
<path d="M242.054 93.0354L245.479 96.4578L245.833 96.8115L245.479 97.1652L242.045 100.596L244.356 102.98L247.779 99.5588L248.133 99.2057L248.486 99.5588L251.916 102.985L254.215 100.688L250.786 97.2621L250.427 96.9035L250.791 96.5499L254.016 93.4148L251.717 91.1175L248.481 94.2627L248.128 94.6062L247.779 94.2579L246.712 93.1919M242.054 93.0354L246.712 93.1919M242.054 93.0354C243.406 91.8459 245.467 91.9475 246.712 93.1919M242.054 93.0354L247.066 92.8382L246.712 93.1919" fill="white" stroke="black"/>
<path d="M260.416 111.285L256.991 107.862C258.343 106.673 260.404 106.775 261.649 108.019L261.986 107.682L261.649 108.019L262.716 109.085L263.065 109.433L263.418 109.09L266.654 105.945L268.953 108.242L265.728 111.377L265.364 111.731L265.723 112.089L269.152 115.515L266.853 117.812L263.423 114.386L263.07 114.033L262.716 114.386L259.293 117.807L256.982 115.423L260.416 111.992L260.77 111.638L260.416 111.285Z" fill="white" stroke="black"/>
<path d="M275.353 126.209L271.928 122.786C273.279 121.597 275.34 121.698 276.586 122.943L276.904 122.625L276.586 122.943L277.653 124.009L278.002 124.357L278.355 124.014L281.59 120.868L283.89 123.166L280.665 126.301L280.301 126.654L280.66 127.013L284.088 130.439L281.789 132.736L278.36 129.31L278.006 128.957L277.653 129.31L274.229 132.73L271.919 130.347L275.353 126.916L275.707 126.562L275.353 126.209Z" fill="white" stroke="black"/>
<path d="M260.222 81.7277L256.797 78.3053C258.148 77.1158 260.21 77.2174 261.455 78.4618L261.773 78.1435L261.455 78.4618L262.522 79.5278L262.871 79.8761L263.224 79.5326L266.459 76.3874L268.759 78.6847L265.534 81.8198L265.17 82.1734L265.529 82.532L268.958 85.9577L266.658 88.2551L263.229 84.8287L262.875 84.4756L262.522 84.8287L259.098 88.2494L256.788 85.8664L260.222 82.4351L260.576 82.0814L260.222 81.7277Z" fill="white" stroke="black"/>
<path d="M275.062 96.6516L271.637 93.2293C272.988 92.0398 275.049 92.1414 276.295 93.3858L276.63 93.0507L276.295 93.3858L277.362 94.4518L277.711 94.8001L278.064 94.4566L281.299 91.3114L283.599 93.6087L280.374 96.7437L280.01 97.0974L280.369 97.4559L283.797 100.882L281.498 103.179L278.069 99.7527L277.715 99.3996L277.362 99.7527L273.938 103.173L271.628 100.79L275.062 97.359L275.416 97.0053L275.062 96.6516Z" fill="white" stroke="black"/>
<path d="M96.8852 6.62367L93.4598 3.20132C94.8115 2.0118 96.8727 2.1134 98.1182 3.35784L99.1852 4.42383L99.5338 4.77212L99.8871 4.42864L103.123 1.28341L105.422 3.5807L102.197 6.71577L101.833 7.06941L102.192 7.428L105.621 10.8537L103.321 13.1511L99.892 9.72474L99.5386 9.37165L99.1852 9.72474L95.7615 13.1454L93.4509 10.7624L96.8852 7.33109L97.2392 6.97738L96.8852 6.62367Z" fill="white" stroke="black"/>
<path d="M111.822 21.5476L108.396 18.1253C109.748 16.9357 111.809 17.0373 113.055 18.2818L114.122 19.3478L114.47 19.6961L114.824 19.3526L118.059 16.2074L120.358 18.5047L117.133 21.6397L116.77 21.9934L117.128 22.3519L120.557 25.7777L118.258 28.075L114.828 24.6487L114.475 24.2956L114.122 24.6487L110.698 28.0694L108.387 25.6863L111.822 22.255L112.176 21.9013L111.822 21.5476Z" fill="white" stroke="black"/>
<path d="M129.059 39.5726L125.635 42.9932L123.325 40.6102L126.759 37.1789L127.113 36.8252L126.759 36.4715L123.334 33.0491C124.686 31.8596 126.747 31.9612 127.992 33.2057L128.346 32.8519L127.992 33.2057L129.059 34.2716L129.408 34.6199L129.761 34.2764L132.997 31.1312L135.296 33.4285L132.071 36.5636L131.707 36.9172L132.066 37.2758L135.495 40.7015L133.195 42.9989L129.766 39.5726L129.413 39.2195L129.059 39.5726Z" fill="white" stroke="black"/>
<path d="M141.599 51.2985L138.174 47.8761C139.525 46.6866 141.587 46.7882 142.832 48.0326L143.185 47.6789L142.832 48.0326L143.899 49.0986L144.248 49.4469L144.601 49.1034L147.836 45.9582L150.136 48.2555L146.911 51.3906L146.547 51.7442L146.906 52.1028L150.335 55.5285L148.035 57.8259L144.606 54.3995L144.252 54.0465L143.899 54.3995L140.475 57.8202L138.165 55.4372L141.599 52.0059L141.953 51.6522L141.599 51.2985Z" fill="white" stroke="black"/>
<path d="M123.045 11.1386L126.468 7.71871L126.822 7.365L126.468 7.01129L122.992 3.53863L122.996 3.53422C124.346 2.30029 126.441 2.38958 127.701 3.64855L128.768 4.71454L129.122 5.06763L129.475 4.71454L132.613 1.57893L134.908 3.87141L131.683 7.00648L131.31 7.36931L131.687 7.72765L135.195 11.0567L132.904 13.3449L129.475 9.91854L129.122 9.56545L128.768 9.91854L125.333 13.3506L123.045 11.1386Z" fill="white" stroke="black"/>
<path d="M149.942 18.7953L146.717 21.9304L146.353 22.284L146.712 22.6426L150.141 26.0683L147.841 28.3657L144.412 24.9393L144.059 24.5863L143.705 24.9393L140.281 28.36L137.971 25.977L141.405 22.5457L141.759 22.192L141.405 21.8383L137.98 18.4159C139.332 17.2264 141.393 17.328 142.638 18.5724L143.705 19.6384L144.054 19.9867L144.407 19.6432L147.643 16.498L149.942 18.7953Z" fill="white" stroke="black"/>
<path d="M156.342 36.6653L152.916 33.2429C154.268 32.0534 156.329 32.155 157.575 33.3994L158.642 34.4654L158.99 34.8137L159.344 34.4702L162.579 31.325L164.878 33.6223L161.653 36.7574L161.29 37.111L161.648 37.4696L165.077 40.8953L162.778 43.1927L159.349 39.7663L158.995 39.4133L158.642 39.7663L155.218 43.187L152.907 40.804L156.342 37.3727L156.696 37.019L156.342 36.6653Z" fill="white" stroke="black"/>
<path d="M164.684 4.06526L161.46 7.20033L161.096 7.55397L161.455 7.91255L164.883 11.3383L162.584 13.6356L159.155 10.2093L158.801 9.85621L158.448 10.2093L155.013 13.6414L152.725 11.4293L156.148 8.00946L156.502 7.65575L156.148 7.30205L152.642 3.79877L152.694 3.7111C154.045 2.49499 156.127 2.58923 157.381 3.8424L157.679 3.54455L157.381 3.8424L158.448 4.90839L158.796 5.25668L159.15 4.9132L162.385 1.76797L164.684 4.06526Z" fill="white" stroke="black"/>
<path d="M173.288 25.1331L169.865 28.5538L167.554 26.1708L170.988 22.7395L171.342 22.3858L170.988 22.0321L167.563 18.6097C168.915 17.4202 170.976 17.5218 172.221 18.7662L173.288 19.8322L173.637 20.1805L173.99 19.837L177.226 16.6918L179.525 18.9891L176.3 22.1242L175.936 22.4778L176.295 22.8364L179.724 26.2621L177.424 28.5595L173.995 25.1331L173.642 24.78L173.288 25.1331Z" fill="white" stroke="black"/>
<path d="M185.731 7.49583L182.306 4.07348C183.657 2.88396 185.718 2.98556 186.964 4.23L187.934 5.19909L188.283 5.5475L188.636 5.20377L191.968 1.96189L194.268 4.25905L191.043 7.39412L190.679 7.74775L191.038 8.10634L194.466 11.5321L192.167 13.8294L188.738 10.4031L188.384 10.05L188.031 10.4031L184.596 13.8352L182.308 11.6231L185.731 8.20325L186.085 7.84954L185.731 7.49583Z" fill="white" stroke="black"/>
<path d="M97.7582 124.949L94.3329 121.527C95.6846 120.337 97.7457 120.439 98.9913 121.683L100.058 122.749L100.407 123.097L100.76 122.754L103.996 119.609L106.295 121.906L103.07 125.041L102.706 125.395L103.065 125.753L106.494 129.179L104.194 131.476L100.765 128.05L100.412 127.697L100.058 128.05L96.6345 131.471L94.3239 129.088L97.7582 125.656L98.1122 125.303L97.7582 124.949Z" fill="white" stroke="black"/>
<path d="M117.904 140.483L121.333 143.909L119.034 146.206L115.604 142.78L115.251 142.427L114.898 142.78L111.468 146.206L109.169 143.909L112.598 140.483L112.952 140.13L112.598 139.776L109.172 136.353C110.524 135.164 112.585 135.266 113.831 136.51L114.898 137.576L115.246 137.924L115.599 137.581L118.835 134.436L121.129 136.728L117.914 139.766L117.54 140.12L117.904 140.483Z" fill="white" stroke="black"/>
<path d="M132.842 155.504L136.271 158.93L133.971 161.227L130.542 157.801L130.188 157.448L129.835 157.801L126.406 161.227L124.106 158.93L127.535 155.504L127.889 155.15L127.535 154.797L124.11 151.374C125.461 150.185 127.523 150.286 128.768 151.531L129.835 152.597L130.184 152.945L130.537 152.602L133.772 149.456L136.067 151.749L132.852 154.787L132.478 155.14L132.842 155.504Z" fill="white" stroke="black"/>
<path d="M112.404 110.219L108.979 106.796C110.331 105.607 112.392 105.709 113.637 106.953L114.704 108.019L115.053 108.367L115.406 108.024L118.642 104.879L120.941 107.176L117.716 110.311L117.352 110.665L117.711 111.023L121.14 114.449L118.84 116.746L115.411 113.32L115.058 112.967L114.704 113.32L111.281 116.741L108.97 114.358L112.404 110.926L112.758 110.573L112.404 110.219Z" fill="white" stroke="black"/>
<path d="M127.341 125.143L123.915 121.72C125.267 120.531 127.328 120.632 128.574 121.877L129.641 122.943L129.989 123.291L130.343 122.948L133.578 119.802L135.877 122.1L132.652 125.235L132.289 125.588L132.648 125.947L136.076 129.373L133.777 131.67L130.348 128.244L129.994 127.891L129.641 128.244L126.217 131.664L123.906 129.281L127.341 125.85L127.695 125.496L127.341 125.143Z" fill="white" stroke="black"/>
<path d="M147.488 140.774L150.917 144.2L148.617 146.497L145.188 143.071L144.834 142.718L144.481 143.071L141.052 146.497L138.752 144.2L142.181 140.774L142.535 140.42L142.181 140.067L138.756 136.644C140.107 135.455 142.169 135.556 143.414 136.801L144.481 137.867L144.83 138.215L145.183 137.872L148.418 134.726L150.713 137.019L147.498 140.057L147.124 140.41L147.488 140.774Z" fill="white" stroke="black"/>
<path d="M162.425 155.698L165.854 159.124L163.554 161.421L160.125 157.995L159.771 157.642L159.418 157.995L155.989 161.421L153.689 159.124L157.118 155.698L157.472 155.344L157.118 154.99L153.693 151.568C155.044 150.379 157.106 150.48 158.351 151.725L159.418 152.791L159.767 153.139L160.12 152.795L163.355 149.65L165.65 151.942L162.435 154.981L162.061 155.334L162.425 155.698Z" fill="white" stroke="black"/>
<path d="M135.684 92.5426L132.459 95.6777L132.095 96.0313L132.454 96.3899L135.882 99.8157L133.583 102.113L130.154 98.6867L129.8 98.3336L129.447 98.6867L126.023 102.107L123.713 99.7243L127.147 96.293L127.501 95.9393L127.147 95.5856L123.722 92.1633C125.073 90.9737 127.134 91.0753 128.38 92.3198L129.447 93.3858L129.795 93.7341L130.149 93.3906L133.384 90.2454L135.684 92.5426Z" fill="white" stroke="black"/>
<path d="M141.987 110.413L138.561 106.99C139.913 105.801 141.974 105.902 143.22 107.147L144.287 108.213L144.635 108.561L144.989 108.218L148.224 105.072L150.523 107.37L147.298 110.505L146.935 110.858L147.294 111.217L150.722 114.643L148.423 116.94L144.994 113.514L144.64 113.161L144.287 113.514L140.863 116.934L138.552 114.551L141.987 111.12L142.341 110.766L141.987 110.413Z" fill="white" stroke="black"/>
<path d="M157.021 125.337L153.596 121.914C154.947 120.725 157.008 120.826 158.254 122.071L158.572 121.752L158.254 122.071L159.321 123.137L159.67 123.485L160.023 123.141L163.258 119.996L165.558 122.294L162.333 125.429L161.969 125.782L162.328 126.141L165.756 129.567L163.457 131.864L160.028 128.438L159.674 128.084L159.321 128.438L155.897 131.858L153.587 129.475L157.021 126.044L157.375 125.69L157.021 125.337Z" fill="white" stroke="black"/>
<path d="M177.071 140.968L180.5 144.394L178.201 146.691L174.771 143.265L174.418 142.912L174.065 143.265L170.635 146.691L168.336 144.394L171.765 140.968L172.119 140.614L171.765 140.26L168.339 136.838C169.691 135.649 171.752 135.75 172.998 136.995L174.065 138.061L174.413 138.409L174.766 138.065L178.002 134.92L180.296 137.212L177.081 140.251L176.707 140.604L177.071 140.968Z" fill="white" stroke="black"/>
<path d="M141.793 80.8555L138.368 77.4332C139.72 76.2437 141.781 76.3453 143.026 77.5897L144.093 78.6557L144.442 79.004L144.795 78.6605L148.031 75.5153L150.33 77.8126L147.105 80.9476L146.741 81.3013L147.1 81.6599L150.529 85.0856L148.23 87.383L144.8 83.9566L144.447 83.6035L144.093 83.9566L140.67 87.3773L138.359 84.9943L141.793 81.563L142.147 81.2093L141.793 80.8555Z" fill="white" stroke="black"/>
<path d="M159.03 98.8805L155.607 102.301L153.296 99.9181L156.73 96.4868L157.084 96.1331L156.73 95.7794L153.305 92.3571C154.657 91.1676 156.718 91.2692 157.963 92.5136L159.03 93.5796L159.379 93.9279L159.732 93.5844L162.968 90.4392L165.267 92.7365L162.042 95.8715L161.678 96.2252L162.037 96.5838L165.466 100.009L163.167 102.307L159.737 98.8805L159.384 98.5274L159.03 98.8805Z" fill="white" stroke="black"/>
<path d="M173.967 113.804L170.543 117.225L168.233 114.842L171.667 111.411L172.021 111.057L171.667 110.703L168.242 107.281C169.593 106.092 171.654 106.193 172.9 107.438L173.239 107.098L172.9 107.438L173.967 108.504L174.316 108.852L174.669 108.508L177.904 105.363L180.204 107.66L176.979 110.795L176.615 111.149L176.974 111.508L180.402 114.933L178.103 117.231L174.674 113.804L174.32 113.451L173.967 113.804Z" fill="white" stroke="black"/>
<path d="M186.604 125.53L183.179 122.108C184.53 120.918 186.591 121.02 187.837 122.265L188.175 121.926L187.837 122.265L188.904 123.331L189.253 123.679L189.606 123.335L192.841 120.19L195.141 122.487L191.916 125.622L191.552 125.976L191.911 126.335L195.339 129.76L193.04 132.058L189.611 128.631L189.257 128.278L188.904 128.631L185.469 132.064L183.172 129.843L186.613 126.229L186.949 125.875L186.604 125.53Z" fill="white" stroke="black"/>
<path d="M192.008 155.892L195.437 159.317L193.137 161.615L189.708 158.189L189.354 157.835L189.001 158.189L185.572 161.615L183.272 159.317L186.701 155.892L187.055 155.538L186.701 155.184L183.276 151.762C184.627 150.572 186.689 150.674 187.934 151.919L189.001 152.985L189.35 153.333L189.703 152.989L192.938 149.844L195.233 152.136L192.018 155.175L191.644 155.528L192.008 155.892Z" fill="white" stroke="black"/>
<path d="M206.653 141.162L210.082 144.587L207.783 146.885L204.353 143.458L204 143.105L203.647 143.458L200.217 146.885L197.918 144.587L201.347 141.162L201.701 140.808L201.347 140.454L197.921 137.032C199.273 135.842 201.334 135.944 202.58 137.188L203.647 138.254L203.995 138.603L204.349 138.259L207.584 135.114L209.878 137.406L206.663 140.445L206.289 140.798L206.653 141.162Z" fill="white" stroke="black"/>
<path d="M221.494 156.086L224.923 159.511L222.624 161.809L219.194 158.382L218.841 158.029L218.487 158.382L215.058 161.809L212.759 159.511L216.187 156.086L216.541 155.732L216.187 155.378L212.762 151.956C214.114 150.766 216.175 150.868 217.42 152.112L217.774 151.759L217.42 152.112L218.487 153.178L218.836 153.527L219.189 153.183L222.425 150.038L224.719 152.33L221.504 155.368L221.13 155.722L221.494 156.086Z" fill="white" stroke="black"/>
<path d="M73.5787 155.02L77.0074 158.445L74.708 160.743L71.2787 157.316L70.9253 156.963L70.5719 157.316L67.1425 160.743L64.8432 158.445L68.2719 155.02L68.6259 154.666L68.2719 154.312L64.8465 150.89C66.1983 149.7 68.2594 149.802 69.505 151.046L70.5719 152.112L70.9205 152.461L71.2738 152.117L74.5092 148.972L76.8035 151.264L73.5886 154.302L73.2147 154.656L73.5787 155.02Z" fill="white" stroke="black"/>
<path d="M88.3219 140.29L91.7506 143.715L89.4512 146.013L86.0219 142.586L85.6685 142.233L85.3151 142.586L81.8857 146.013L79.5863 143.715L83.0151 140.29L83.3691 139.936L83.0151 139.582L79.5897 136.16C80.9414 134.97 83.0026 135.072 84.2481 136.316L84.6015 135.963L84.2481 136.316L85.3151 137.382L85.6636 137.731L86.017 137.387L89.2524 134.242L91.5466 136.534L88.3318 139.572L87.9579 139.926L88.3219 140.29Z" fill="white" stroke="black"/>
<path d="M103.162 155.213L106.59 158.639L104.291 160.936L100.862 157.51L100.508 157.157L100.155 157.51L96.7255 160.936L94.4262 158.639L97.8549 155.213L98.2089 154.86L97.8549 154.506L94.4295 151.084C95.7813 149.894 97.8424 149.996 99.088 151.24L100.155 152.306L100.503 152.654L100.857 152.311L104.092 149.166L106.386 151.458L103.172 154.496L102.798 154.85L103.162 155.213Z" fill="white" stroke="black"/>
<path d="M8.32999 35.5993L4.90464 32.1769C6.25637 30.9874 8.31753 31.089 9.56307 32.3334L10.63 33.3994L10.9786 33.7477L11.3319 33.4042L14.5673 30.259L16.8666 32.5563L13.6417 35.6914L13.2779 36.045L13.6368 36.4036L17.0655 39.8293L14.7661 42.1267L11.3368 38.7003L10.9834 38.3472L10.63 38.7003L7.2063 42.121L4.89569 39.738L8.32999 36.3067L8.68401 35.953L8.32999 35.5993Z" fill="white" stroke="black"/>
<path d="M23.267 50.4263L19.8417 47.0039C21.1934 45.8144 23.2545 45.916 24.5001 47.1605L25.567 48.2264L25.9156 48.5747L26.2689 48.2313L29.5044 45.086L31.8037 47.3833L28.5787 50.5184L28.2149 50.872L28.5738 51.2306L32.0025 54.6563L29.7031 56.9537L26.2738 53.5274L25.9204 53.1743L25.567 53.5274L22.1433 56.9481L19.8327 54.565L23.267 51.1337L23.621 50.78L23.267 50.4263Z" fill="white" stroke="black"/>
<path d="M8.13614 6.13916L4.71068 2.7167C6.06666 1.51654 8.03624 1.54152 9.36922 2.87333L10.3392 3.84241L10.6877 4.1907L11.0411 3.84722L14.2765 0.701993L16.5758 2.99928L13.3508 6.13435L12.9776 6.49717L13.3551 6.85552L16.8625 10.1846L14.5723 12.4728L11.1429 9.04641L10.7895 8.69332L10.4361 9.04641L7.00105 12.4785L4.71327 10.2664L8.13614 6.84657L8.49016 6.49287L8.13614 6.13916Z" fill="white" stroke="black"/>
<path d="M23.0727 21.063L19.6473 17.6407C20.999 16.4512 23.0602 16.5528 24.3057 17.7972L25.2757 18.7663L25.6243 19.1146L25.9776 18.7711L29.2186 15.6205L31.6035 17.9288L28.3843 21.0582L28.0206 21.4119L28.3795 21.7705L31.8082 25.1962L29.5088 27.4935L26.0795 24.0672L25.7261 23.7141L25.3727 24.0672L21.9433 27.4935L19.6439 25.1962L23.0727 21.7705L23.4267 21.4168L23.0727 21.063Z" fill="white" stroke="black"/>
<path d="M37.913 35.7931L34.4876 32.3708C35.8394 31.1812 37.9005 31.2828 39.1461 32.5273L39.4995 32.1736L39.1461 32.5273L40.213 33.5933L40.5616 33.9415L40.9149 33.5981L44.1503 30.4528L46.4497 32.7501L43.2247 35.8852L42.8609 36.2388L43.2198 36.5974L46.6485 40.0231L44.3491 42.3205L40.9198 38.8942L40.5664 38.5411L40.213 38.8942L36.7893 42.3149L34.4787 39.9318L37.913 36.5005L38.267 36.1468L37.913 35.7931Z" fill="white" stroke="black"/>
<path d="M34.2963 10.5571L37.7192 7.13722L38.0687 6.78796L37.7236 6.43431L34.289 2.91476C35.6407 1.72079 37.7052 1.82116 38.9522 3.06707L40.0192 4.13306L40.3677 4.48135L40.7211 4.13787L43.9565 0.992643L46.2558 3.28993L43.0308 6.425L42.6623 6.78326L43.0306 7.14178L46.4501 10.4707L44.1553 12.7634L40.726 9.33706L40.3726 8.98397L40.0192 9.33706L36.5841 12.7691L34.2963 10.5571Z" fill="white" stroke="black"/>
<path d="M52.6562 21.1599L49.2308 17.7376C50.5825 16.5481 52.6437 16.6497 53.8892 17.8941L54.9562 18.9601L55.3048 19.3084L55.6581 18.9649L58.8935 15.8197L61.1928 18.117L57.9678 21.252L57.6041 21.6057L57.963 21.9642L61.3917 25.39L59.0923 27.6873L55.663 24.261L55.3096 23.9079L54.9562 24.261L51.5325 27.6817L49.2219 25.2986L52.6562 21.8673L53.0102 21.5136L52.6562 21.1599Z" fill="white" stroke="black"/>
<path d="M67.3017 6.52681L63.8763 3.10446C65.2281 1.91493 67.2892 2.01653 68.5347 3.26098L69.6017 4.32697L69.9551 4.68006L70.3085 4.32697L73.4468 1.19136L75.7413 3.48384L72.5164 6.61891L72.1431 6.98173L72.5207 7.34008L76.028 10.6691L73.7378 12.9573L70.3085 9.53097L69.9551 9.17788L69.6017 9.53097L66.1723 12.9573L63.8729 10.6599L67.3017 7.23422L67.6557 6.88052L67.3017 6.52681Z" fill="white" stroke="black"/>
<path d="M34.7745 69.5906L38.1999 66.256L38.5631 65.9023L38.2045 65.544L34.6822 62.0247C36.0339 60.8352 38.095 60.9368 39.3406 62.1813L40.4075 63.2473L40.7561 63.5955L41.1094 63.2521L44.3449 60.1068L46.6442 62.4041L43.4192 65.5392L43.0506 65.8975L43.4189 66.256L46.8384 69.5849L44.5436 71.8776L41.1143 68.4513L40.7609 68.0982L40.4075 68.4513L36.984 71.8718L34.7745 69.5906Z" fill="white" stroke="black"/>
<path d="M53.0439 80.1771L49.6185 76.7548C50.9702 75.5653 53.0314 75.6669 54.2769 76.9113L55.3439 77.9773L55.6925 78.3256L56.0458 77.9821L59.2812 74.8369L61.5805 77.1342L58.3555 80.2692L57.9918 80.6229L58.3507 80.9815L61.7794 84.4072L59.48 86.7045L56.0507 83.2782L55.6973 82.9251L55.3439 83.2782L51.9202 86.6989L49.6096 84.3158L53.0439 80.8846L53.3979 80.5308L53.0439 80.1771Z" fill="white" stroke="black"/>
<path d="M70.2814 98.2991L66.8577 101.72L64.5471 99.3367L67.9814 95.9054L68.3354 95.5517L67.9814 95.198L64.556 91.7756C65.9077 90.5861 67.9689 90.6877 69.2144 91.9322L70.2814 92.9981L70.6299 93.3464L70.9833 93.003L74.2187 89.8577L76.518 92.155L73.293 95.2901L72.9293 95.6437L73.2882 96.0023L76.7169 99.428L74.4175 101.725L70.9882 98.2991L70.6348 97.946L70.2814 98.2991Z" fill="white" stroke="black"/>
<path d="M82.9179 110.219L79.4925 106.796C80.8443 105.607 82.9054 105.709 84.151 106.953L85.1209 107.922L85.4696 108.27L85.8229 107.927L89.1554 104.685L91.4545 106.982L88.2296 110.117L87.8658 110.471L88.2247 110.829L91.6534 114.255L89.354 116.552L85.9247 113.126L85.5713 112.773L85.2179 113.126L81.7828 116.558L79.495 114.346L82.9179 110.926L83.2719 110.573L82.9179 110.219Z" fill="white" stroke="black"/>
<path d="M61.3867 47.5772L58.1617 50.7122L57.7979 51.0659L58.1568 51.4245L61.5855 54.8502L59.2862 57.1475L55.8568 53.7212L55.5034 53.3681L55.15 53.7212L51.7091 57.1591L49.4333 55.032L52.85 51.6183L53.204 51.2646L52.85 50.9109L49.3743 47.4382L49.3776 47.4338C50.7253 46.2025 52.814 46.2888 54.0749 47.54L55.0366 48.5969L55.3892 48.9844L55.7598 48.6141L59.0922 45.2847L61.3867 47.5772Z" fill="white" stroke="black"/>
<path d="M69.9903 68.6451L66.5668 72.0656L64.3484 69.7752L67.6949 66.3437L68.0398 65.99L67.6903 65.6409L64.265 62.2185C65.6167 61.029 67.6779 61.1306 68.9234 62.3751L68.9318 62.3835L68.9406 62.3915L70.0076 63.3606L70.3554 63.6765L70.6923 63.349L73.9277 60.2037L76.227 62.501L73.002 65.6361L72.6382 65.9897L72.9971 66.3483L76.4259 69.774L74.1265 72.0714L70.6971 68.6451L70.3437 68.292L69.9903 68.6451Z" fill="white" stroke="black"/>
<path d="M82.724 80.4679L79.2987 77.0456C80.6504 75.856 82.7116 75.9576 83.9571 77.2021L85.024 78.2681L85.3726 78.6164L85.7259 78.2729L88.9614 75.1277L91.2607 77.4249L88.0357 80.56L87.6719 80.9136L88.0308 81.2722L91.4595 84.6979L89.1602 86.9953L85.7308 83.569L85.3774 83.2159L85.024 83.569L81.6003 86.9897L79.2897 84.6066L82.724 81.1753L83.0781 80.8216L82.724 80.4679Z" fill="white" stroke="black"/>
<path d="M94.1385 91.9695L97.5639 95.3918L97.9179 95.7455L97.5639 96.0992L94.1296 99.5305L96.4402 101.914L99.8639 98.4929L100.217 98.1398L100.571 98.4929L104 101.919L106.299 99.6219L102.871 96.1961L102.512 95.8375L102.876 95.4839L106.101 92.3488L103.801 90.0515L100.566 93.1968L100.212 93.5403L99.8639 93.192L98.7969 92.126M94.1385 91.9695L98.7969 92.126M94.1385 91.9695C95.4903 90.7799 97.5514 90.8815 98.7969 92.126M94.1385 91.9695L99.1503 91.7723L98.7969 92.126" fill="white" stroke="black"/>
<path d="M64.0711 32.6615C65.4229 31.472 67.484 31.5736 68.7296 32.818L69.7965 33.884L70.1451 34.2323L70.4984 33.8888L73.7396 30.738L76.0271 32.9498L72.8082 36.079L72.4444 36.4327L72.8033 36.7913L76.232 40.217L73.9326 42.5143L70.5033 39.088L70.1499 38.7349L69.7965 39.088L66.3672 42.5143L64.0678 40.217L67.4965 36.7913L67.8505 36.4376L67.4965 36.0838L64.0711 32.6615Z" fill="white" stroke="black"/>
<path d="M78.9187 55.1293L82.3358 51.7152L82.6899 51.3615L82.3358 51.0077L78.9105 47.5854C80.2622 46.3959 82.3234 46.4975 83.5689 47.7419L84.6358 48.8079L84.9892 49.161L85.3426 48.8079L88.578 45.5754L90.8725 47.8679L87.6475 51.0029L87.2743 51.3658L87.6518 51.7241L91.1592 55.0532L88.869 57.3413L85.4396 53.915L85.0862 53.5619L84.7328 53.915L81.2923 57.3525L78.9187 55.1293Z" fill="white" stroke="black"/>
<path d="M105.907 62.7917L102.682 65.9268L102.318 66.2804L102.677 66.639L106.106 70.0647L103.806 72.3621L100.377 68.9357L100.023 68.5826L99.67 68.9357L96.2407 72.3621L93.9459 70.0693L97.3654 66.7405L97.7287 66.3868L97.37 66.0285L93.8943 62.5558L93.8976 62.5514C95.2482 61.3175 97.343 61.4068 98.6031 62.6657L99.67 63.7317L100.023 64.0848L100.377 63.7317L103.612 60.4992L105.907 62.7917Z" fill="white" stroke="black"/>
<path d="M114.51 83.7627L111.086 87.1834L108.776 84.8004L112.21 81.3691L112.564 81.0154L112.21 80.6617L108.785 77.2393C110.136 76.0498 112.197 76.1514 113.443 77.3958L113.782 77.0563L113.443 77.3958L114.51 78.4618L114.858 78.8101L115.212 78.4666L118.447 75.3214L120.747 77.6187L117.522 80.7538L117.158 81.1074L117.517 81.466L120.945 84.8917L118.646 87.1891L115.217 83.7627L114.863 83.4096L114.51 83.7627Z" fill="white" stroke="black"/>
<path d="M82.142 21.3538L78.7166 17.9314C80.0684 16.7419 82.1295 16.8435 83.3751 18.0879L83.7285 17.7342L83.3751 18.0879L84.442 19.1539L84.7906 19.5022L85.1439 19.1587L88.3849 16.0081L90.7698 18.3165L87.5507 21.4459L87.1869 21.7995L87.5458 22.1581L90.9745 25.5838L88.6751 27.8812L85.2458 24.4548L84.8924 24.1018L84.539 24.4548L81.1096 27.8812L78.7133 25.4869L82.142 22.0612L82.496 21.7075L82.142 21.3538Z" fill="white" stroke="black"/>
<path d="M105.615 33.1378L102.39 36.2728L102.026 36.6265L102.385 36.9851L105.814 40.4108L103.515 42.7081L100.085 39.2818L99.7319 38.9287L99.3785 39.2818L95.9434 42.7139L93.6557 40.5018L97.0785 37.082L97.4325 36.7283L97.0785 36.3746L93.5722 32.8713L93.6248 32.7836C94.976 31.5675 97.0573 31.6617 98.3116 32.9149L99.3785 33.9809L99.7271 34.3292L100.08 33.9857L103.316 30.8405L105.615 33.1378Z" fill="white" stroke="black"/>
<path d="M114.317 54.2058L110.893 57.6265L108.582 55.2434L112.017 51.8121L112.371 51.4584L112.017 51.1047L108.591 47.6823C109.943 46.4928 112.004 46.5944 113.25 47.8389L114.317 48.9049L114.665 49.2531L115.018 48.9097L118.254 45.7644L120.553 48.0617L117.328 51.1968L116.964 51.5504L117.323 51.909L120.752 55.3347L118.453 57.6321L115.023 54.2058L114.67 53.8527L114.317 54.2058Z" fill="white" stroke="black"/>
<path d="M129.254 69.1296L125.83 72.5503L123.519 70.1672L126.954 66.736L127.308 66.3822L126.954 66.0285L123.528 62.6062C124.88 61.4167 126.941 61.5183 128.187 62.7627L128.54 62.409L128.187 62.7627L129.254 63.8287L129.602 64.177L129.955 63.8335L133.191 60.6883L135.49 62.9856L132.265 66.1206L131.901 66.4743L132.26 66.8329L135.689 70.2586L133.39 72.5559L129.96 69.1296L129.607 68.7765L129.254 69.1296Z" fill="white" stroke="black"/>
<path d="M8.62101 65.1564L5.19566 61.734C6.54739 60.5445 8.60854 60.6461 9.85408 61.8905L10.921 62.9565L11.2696 63.3048L11.6229 62.9613L14.8584 59.8161L17.1577 62.1134L13.9327 65.2485L13.5689 65.6021L13.9278 65.9607L17.3565 69.3864L15.0572 71.6838L11.6278 68.2574L11.2744 67.9043L10.921 68.2574L7.49731 71.6781L5.18671 69.2951L8.62101 65.8638L8.97503 65.5101L8.62101 65.1564Z" fill="white" stroke="black"/>
<path d="M14.5098 154.632L17.9386 158.058L15.6392 160.355L12.2098 156.929L11.8564 156.576L11.503 156.929L8.07369 160.355L5.77431 158.058L9.20304 154.632L9.55706 154.278L9.20304 153.925L5.77768 150.502C7.12942 149.313 9.19057 149.414 10.4361 150.659L10.7764 150.318L10.4361 150.659L11.503 151.725L11.8516 152.073L12.205 151.73L15.4404 148.584L17.7346 150.876L14.5198 153.915L14.1458 154.268L14.5098 154.632Z" fill="white" stroke="black"/>
<path d="M9.0087 124.271L5.58335 120.848C6.93508 119.659 8.99624 119.76 10.2418 121.005L11.3087 122.071L11.6573 122.419L12.0106 122.075L15.2461 118.93L17.5454 121.228L14.3204 124.363L13.9566 124.716L14.3155 125.075L17.7442 128.501L15.4448 130.798L12.0155 127.372L11.6621 127.018L11.3087 127.372L7.88501 130.792L5.5744 128.409L9.0087 124.978L9.36272 124.624L9.0087 124.271Z" fill="white" stroke="black"/>
<path d="M29.1558 139.902L32.5846 143.328L30.2852 145.625L26.8558 142.199L26.5024 141.845L26.149 142.199L22.7197 145.625L20.4203 143.328L23.849 139.902L24.2031 139.548L23.849 139.194L20.4237 135.772C21.7754 134.583 23.8366 134.684 25.0821 135.929L26.149 136.995L26.4976 137.343L26.851 136.999L30.0864 133.854L32.3806 136.146L29.1658 139.185L28.7918 139.538L29.1558 139.902Z" fill="white" stroke="black"/>
<path d="M43.9962 154.826L47.4249 158.252L45.1255 160.549L41.6962 157.123L41.3428 156.769L40.9894 157.123L37.56 160.549L35.2606 158.252L38.6894 154.826L39.0434 154.472L38.6894 154.118L35.264 150.696C36.6157 149.506 38.6769 149.608 39.9224 150.853L40.259 150.516L39.9224 150.853L40.9894 151.919L41.338 152.267L41.6913 151.923L44.9267 148.778L47.2209 151.07L44.0061 154.109L43.6322 154.462L43.9962 154.826Z" fill="white" stroke="black"/>
<path d="M8.81486 94.7134L5.3895 91.2911C6.74124 90.1016 8.80239 90.2032 10.0479 91.4476L11.1149 92.5136L11.4634 92.8619L11.8168 92.5184L15.0522 89.3732L17.3515 91.6705L14.1265 94.8055L13.7628 95.1592L14.1217 95.5178L17.5504 98.9435L15.251 101.241L11.8217 97.8145L11.4683 97.4614L11.1149 97.8145L7.69116 101.235L5.38055 98.8522L8.81486 95.4209L9.16887 95.0672L8.81486 94.7134Z" fill="white" stroke="black"/>
<path d="M23.6552 109.54L20.2298 106.118C21.5816 104.929 23.6427 105.03 24.8883 106.275L25.9552 107.341L26.3038 107.689L26.6571 107.345L29.8925 104.2L32.1918 106.497L28.9669 109.633L28.6031 109.986L28.962 110.345L32.3907 113.77L30.0913 116.068L26.662 112.642L26.3086 112.288L25.9552 112.642L22.5315 116.062L20.2209 113.679L23.6552 110.248L24.0092 109.894L23.6552 109.54Z" fill="white" stroke="black"/>
<path d="M47.1284 121.421L43.9034 124.556L43.5396 124.91L43.8985 125.269L47.3272 128.694L45.0278 130.992L41.5985 127.565L41.2451 127.212L40.8917 127.565L37.468 130.986L35.1574 128.603L38.5917 125.172L38.9457 124.818L38.5917 124.464L35.1664 121.042C36.5181 119.852 38.5792 119.954 39.8248 121.198L40.8917 122.264L41.2403 122.613L41.5936 122.269L44.8291 119.124L47.1284 121.421Z" fill="white" stroke="black"/>
<path d="M58.7388 140.096L62.1676 143.521L59.8682 145.819L56.4388 142.392L56.0854 142.039L55.732 142.392L52.3027 145.819L50.0033 143.521L53.432 140.096L53.7861 139.742L53.432 139.388L50.0067 135.966C51.3584 134.776 53.4196 134.878 54.6651 136.122L54.9949 135.792L54.6651 136.122L55.732 137.188L56.0806 137.537L56.434 137.193L59.6694 134.048L61.9636 136.34L58.7488 139.379L58.3749 139.732L58.7388 140.096Z" fill="white" stroke="black"/>
<path d="M23.4609 80.1772L20.0355 76.7548C21.3872 75.5653 23.4484 75.6669 24.6939 76.9113L24.7023 76.9197L24.7111 76.9277L25.7781 77.8968L26.1307 78.2171L26.4676 77.8804L29.703 74.6479L31.9975 76.9404L28.7725 80.0754L28.4087 80.4291L28.7676 80.7877L32.1964 84.2134L29.897 86.5108L26.4676 83.0844L26.1142 82.7313L25.7608 83.0844L22.3258 86.5165L20.038 84.3045L23.4609 80.8846L23.8149 80.5309L23.4609 80.1772Z" fill="white" stroke="black"/>
<path d="M38.3012 95.0041L34.8758 91.5817C36.2276 90.3922 38.2887 90.4938 39.5343 91.7383L39.5427 91.7467L39.5515 91.7547L40.6184 92.7238L40.9662 93.0397L41.3031 92.7122L44.5385 89.5669L46.8378 91.8642L43.6129 94.9993L43.2491 95.3529L43.608 95.7115L47.0367 99.1372L44.7373 101.435L41.308 98.0083L40.9546 97.6552L40.6012 98.0083L37.1718 101.435L34.8725 99.1372L38.3012 95.7115L38.6552 95.3578L38.3012 95.0041Z" fill="white" stroke="black"/>
<path d="M53.3349 109.831L49.9095 106.409C51.2613 105.219 53.3224 105.321 54.568 106.565L55.6349 107.631L55.9835 107.98L56.3368 107.636L59.5722 104.491L61.8715 106.788L58.6466 109.923L58.2828 110.277L58.6417 110.635L62.0704 114.061L59.771 116.359L56.3417 112.932L55.9883 112.579L55.6349 112.932L52.2112 116.353L49.9006 113.97L53.3349 110.539L53.6889 110.185L53.3349 109.831Z" fill="white" stroke="black"/>
<path d="M68.1752 124.755L64.7499 121.333C66.1016 120.143 68.1627 120.245 69.4083 121.489L70.4752 122.555L70.8238 122.903L71.1771 122.56L74.4126 119.415L76.7119 121.712L73.4869 124.847L73.1231 125.201L73.482 125.559L76.9107 128.985L74.6114 131.282L71.182 127.856L70.8286 127.503L70.4752 127.856L67.0515 131.277L64.7409 128.894L68.1752 125.462L68.5292 125.109L68.1752 124.755Z" fill="white" stroke="black"/>
</mask>
<g mask="url(#mask0_1079_258)">
<rect x="-55.0034" y="6.28754" width="339.897" height="148.242" fill="white"/>
</g>
</svg>
